<svg width="21" height="19" xmlns="http://www.w3.org/2000/svg">

 <g>
  <title>background</title>
  <rect fill="none" id="canvas_background" height="402" width="582" y="-1" x="-1"/>
 </g>
 <g>
  <title>Layer 1</title>
  <g id="svg_1" fill="#000">
   <path id="svg_2" d="m6,14.875l6.917,-5.375l-6.917,-5.375l0,2.917l-6.042,0l0,4.917l6.042,0l0,2.916z"/>
   <path id="svg_3" d="m18,0l-13,0c-1.1,0 -2,0.9 -2,2l0,2l2,0l0,-2l13,0l0,15l-13,0l0,-2l-2,0l0,2c0,1.1 0.9,2 2,2l13,0c1.1,0 2,-0.9 2,-2l0,-15c0,-1.1 -0.9,-2 -2,-2z"/>
  </g>
 </g>
</svg>